<?xml version="1.0" encoding="UTF-8"?>
<svg version="1.1" xmlns="http://www.w3.org/2000/svg" width="512" height="512">
<path d="M0 0 C1.65866198 -0.00967334 1.65866198 -0.00967334 3.35083228 -0.0195421 C5.16511003 -0.01489629 5.16511003 -0.01489629 7.01603985 -0.01015663 C8.30506999 -0.01468774 9.59410014 -0.01921886 10.9221918 -0.02388728 C14.49837323 -0.03612259 18.07446114 -0.03585619 21.65065873 -0.03349853 C25.50830695 -0.03309049 29.36592514 -0.04412823 33.22355938 -0.05361366 C40.78082393 -0.0702276 48.33805729 -0.07572339 55.89533857 -0.07683842 C62.03836705 -0.07778872 68.18138522 -0.0818981 74.32441044 -0.08823967 C91.74100859 -0.10585324 109.1575821 -0.11507837 126.57418922 -0.11357872 C127.51315102 -0.11349881 128.45211282 -0.1134189 129.41952801 -0.11333656 C130.82969042 -0.11321392 130.82969042 -0.11321392 132.26834097 -0.1130888 C147.50426391 -0.11227589 162.740088 -0.13141445 177.97598235 -0.1596133 C193.620078 -0.18833918 209.26412543 -0.20215375 224.90824813 -0.20042574 C233.6912387 -0.19976173 242.47412565 -0.20525881 251.25709248 -0.22678185 C258.73518341 -0.24498977 266.21312374 -0.24934422 273.69122723 -0.235763 C277.50593547 -0.2292313 281.32035474 -0.22912314 285.13503551 -0.2464695 C289.27259111 -0.26509038 293.40947719 -0.25265107 297.54704571 -0.23720741 C298.74987204 -0.24749454 299.95269837 -0.25778167 301.19197398 -0.26838052 C308.97967045 -0.20405923 314.51098083 0.7622359 320.53061199 6.07367516 C320.98565105 6.64988609 321.44069012 7.22609703 321.90951824 7.81976891 C322.38260418 8.39855797 322.85569012 8.97734703 323.34311199 9.57367516 C325.70081799 13.08983877 325.59968239 16.28287081 325.60623932 20.38528633 C325.61069716 21.67579895 325.61515501 22.96631156 325.61974794 24.29593062 C325.61965864 25.73647357 325.61946878 27.17701651 325.61918926 28.61755943 C325.62248776 30.14133684 325.6262133 31.66511337 325.63033074 33.18888879 C325.64036035 37.38718008 325.64406907 41.58545707 325.64672005 45.78375864 C325.65062022 50.30740563 325.6601987 54.83104126 325.66893291 59.35468102 C325.6887047 70.28421984 325.6987641 81.21375961 325.7076607 92.14331186 C325.71204213 97.28776636 325.71740929 102.43221982 325.72264957 107.57667351 C325.739662 124.67344893 325.75415704 141.77022371 325.76139832 158.8670063 C325.76330827 163.30471103 325.76522859 167.74241576 325.76718426 172.18012047 C325.767668 173.28311526 325.76815174 174.38611004 325.76865014 175.52252892 C325.77695367 193.3975869 325.80229599 211.27257804 325.83476494 229.14760682 C325.86781398 247.49122825 325.8858451 265.83481567 325.88904256 284.17846704 C325.89120957 294.48114113 325.89998627 304.78371772 325.92550373 315.08636284 C325.94718124 323.85898158 325.95527568 332.63147913 325.94553695 341.40412161 C325.94098378 345.88094348 325.94293741 350.35751514 325.96229839 354.8343029 C325.97987033 358.93276262 325.9789812 363.03078852 325.9634011 367.12925246 C325.96101593 368.61178614 325.96539562 370.09434939 325.97722975 371.57683775 C326.04310192 380.37379377 325.95884749 386.24257739 319.94467449 392.96430016 C315.03692214 396.81165172 311.17876943 398.50532755 304.94403648 398.51453781 C303.2853745 398.52421115 303.2853745 398.52421115 301.5932042 398.53407991 C300.3836857 398.53098271 299.17416721 398.5278855 297.92799664 398.52469444 C296.63896649 398.52922556 295.34993635 398.53375667 294.02184469 398.53842509 C290.44566326 398.5506604 286.86957534 398.55039401 283.29337776 398.54803634 C279.43572953 398.5476283 275.57811134 398.55866604 271.7204771 398.56815147 C264.16321255 398.58476541 256.6059792 398.5902612 249.04869791 398.59137623 C242.90566944 398.59232653 236.76265126 398.59643591 230.61962605 398.60277748 C213.20302789 398.62039106 195.78645439 398.62961618 178.36984726 398.62811653 C177.43088546 398.62803662 176.49192366 398.62795671 175.52450848 398.62787437 C174.11434606 398.62775173 174.11434606 398.62775173 172.67569552 398.62762661 C157.43977257 398.62681371 142.20394849 398.64595226 126.96805414 398.67415111 C111.32395849 398.70287699 95.67991105 398.71669156 80.03578836 398.71496356 C71.25279778 398.71429955 62.46991083 398.71979662 53.68694401 398.74131966 C46.20885307 398.75952758 38.73091275 398.76388203 31.25280925 398.75030081 C27.43810101 398.74376911 23.62368175 398.74366095 19.80900097 398.76100731 C15.67144537 398.77962819 11.5345593 398.76718888 7.39699078 398.75174522 C6.19416444 398.76203235 4.99133811 398.77231948 3.7520625 398.78291833 C-4.03563397 398.71859705 -9.56694435 397.75230192 -15.58657551 392.44086266 C-16.04161457 391.86465172 -16.49665363 391.28844078 -16.96548176 390.69476891 C-17.4385677 390.11597984 -17.91165363 389.53719078 -18.39907551 388.94086266 C-20.75781273 385.42316113 -20.65484021 382.23053249 -20.65940952 378.12645817 C-20.66325067 376.83532885 -20.66709181 375.54419954 -20.67104936 374.21394509 C-20.67026906 372.77271309 -20.66939027 371.33148114 -20.66842365 369.89024925 C-20.67100647 368.36575934 -20.6740194 366.84127011 -20.67742705 365.31678182 C-20.68551 361.11655785 -20.68728734 356.91635095 -20.68802452 352.71612012 C-20.68987282 348.19044877 -20.697419 343.66478632 -20.70415974 339.1391201 C-20.71775254 329.23838541 -20.72376919 319.33765477 -20.72817039 309.4369123 C-20.73093109 303.25758258 -20.73516811 297.07825444 -20.73967457 290.89892578 C-20.75186823 273.79785796 -20.76216751 256.69679141 -20.76554966 239.59571934 C-20.76576923 238.50081791 -20.76598879 237.40591648 -20.76621501 236.27783622 C-20.76643329 235.18028252 -20.76665157 234.08272882 -20.76687646 232.95191592 C-20.76731993 230.72777251 -20.76776649 228.50362911 -20.76821613 226.2794857 C-20.76843756 225.1762286 -20.76865899 224.07297151 -20.76888713 222.93628237 C-20.77283629 205.0540955 -20.79029349 187.17194934 -20.81357566 169.2897782 C-20.8372736 150.94051126 -20.84975079 132.59126477 -20.85091758 114.24198228 C-20.85183519 103.93544728 -20.85760918 93.62896533 -20.87573719 83.32244492 C-20.89111714 74.5472487 -20.89627109 65.77212195 -20.88799909 56.99691483 C-20.88408517 52.518234 -20.88505825 48.03969315 -20.89905643 43.56102943 C-20.91175091 39.46206633 -20.91063724 35.363349 -20.89846572 31.26438645 C-20.89650098 29.7805276 -20.8996229 28.2966516 -20.90831009 26.81281688 C-20.9193652 24.79710732 -20.91014467 22.78131701 -20.89991856 20.76560307 C-20.90051564 19.64553543 -20.90111273 18.52546779 -20.90172791 17.37145871 C-20.28243041 12.21124515 -18.15002121 8.29894845 -14.15298176 5.00726891 C-13.3060677 4.28797203 -13.3060677 4.28797203 -12.44204426 3.55414391 C-8.41900576 0.82833007 -4.81677135 0.00711557 0 0 Z M-3.52798176 14.25726891 C-7.56691612 18.29620327 -7.65310157 20.71951254 -7.65940952 26.20346451 C-7.66325067 27.45340978 -7.66709181 28.70335504 -7.67104936 29.99117744 C-7.67026907 31.38593544 -7.66939027 32.78069339 -7.66842365 34.17545128 C-7.67100654 35.6511563 -7.67401949 37.12686063 -7.67742705 38.60256398 C-7.68550911 42.66789979 -7.68728729 46.73321796 -7.68802452 50.79856086 C-7.68987296 55.17901761 -7.69741917 59.55946516 -7.70415974 63.93991661 C-7.71775159 73.52241244 -7.72376895 83.1049041 -7.72817039 92.68740797 C-7.73093107 98.66772838 -7.73516808 104.64804716 -7.73967457 110.62836647 C-7.75186777 127.17784778 -7.76216736 143.7273278 -7.76554966 160.27681351 C-7.76576923 161.33635516 -7.76598879 162.39589682 -7.76621501 163.4875458 C-7.76643329 164.54965558 -7.76665157 165.61176536 -7.76687646 166.70606029 C-7.76731993 168.85838374 -7.76776649 171.01070718 -7.76821613 173.16303062 C-7.76843756 174.23066266 -7.76865899 175.29829469 -7.76888713 176.3982792 C-7.77283686 193.70562141 -7.790296 211.01292156 -7.81357566 228.32024752 C-7.83726961 246.07851319 -7.8497506 263.83675774 -7.85091758 281.59503949 C-7.85183538 291.57010763 -7.85761419 301.54512095 -7.87573719 311.52017403 C-7.89111172 320.01249847 -7.8962743 328.50475116 -7.88799909 336.99708687 C-7.88408332 341.3318516 -7.8850672 345.66647172 -7.89905643 350.0012188 C-7.91173987 353.96751873 -7.91064713 357.93356455 -7.89846572 361.89986385 C-7.89649905 363.33659897 -7.89963168 364.77335176 -7.90831009 366.21006201 C-7.91934413 368.15980913 -7.91015514 370.10963955 -7.89991856 372.05939102 C-7.90051564 373.14338523 -7.90111273 374.22737943 -7.90172791 375.34422195 C-7.4367236 378.96855195 -6.12995193 381.65529874 -3.52798176 384.25726891 C5.71201824 384.25726891 14.95201824 384.25726891 24.47201824 384.25726891 C24.47201824 262.15726891 24.47201824 140.05726891 24.47201824 14.25726891 C15.23201824 14.25726891 5.99201824 14.25726891 -3.52798176 14.25726891 Z M37.47201824 14.25726891 C37.47201824 18.21726891 37.47201824 22.17726891 37.47201824 26.25726891 C39.94701824 27.24726891 39.94701824 27.24726891 42.47201824 28.25726891 C43.50021834 31.41041587 43.73214522 33.38229634 42.78451824 36.56976891 C41.47201824 38.25726891 41.47201824 38.25726891 37.47201824 39.25726891 C37.47201824 144.85726891 37.47201824 250.45726891 37.47201824 359.25726891 C39.12201824 359.91726891 40.77201824 360.57726891 42.47201824 361.25726891 C43.54244144 364.8508325 43.66307201 366.68410761 42.47201824 370.25726891 C40.82201824 370.91726891 39.17201824 371.57726891 37.47201824 372.25726891 C37.47201824 376.21726891 37.47201824 380.17726891 37.47201824 384.25726891 C71.9447394 384.32566004 106.41744318 384.3787738 140.8902175 384.41046489 C144.95711669 384.41421716 149.02401574 384.41810011 153.09091473 384.42206383 C153.9005844 384.42285076 154.71025407 384.42363769 155.54445919 384.42444847 C168.66626881 384.43751367 181.78803914 384.46117362 194.90982542 384.48872729 C208.36715513 384.51675055 221.82446421 384.53343863 235.28182191 384.53953439 C243.59030746 384.54365724 251.89868194 384.55669361 260.20713332 384.58101831 C265.89927715 384.59683751 271.59136329 384.60167796 277.28352753 384.59777304 C280.57099397 384.5958455 283.85822398 384.60048896 287.14566517 384.61488533 C290.70495005 384.6297137 294.26375166 384.62625766 297.82304668 384.61803246 C298.86875515 384.62677098 299.91446361 384.6355095 300.99186021 384.64451283 C301.94183356 384.63853969 302.8918069 384.63256654 303.87056732 384.62641239 C304.69266184 384.62755155 305.51475635 384.62869071 306.36176282 384.62986439 C309.00625772 384.16294136 309.85529205 383.3679486 311.47201824 381.25726891 C312.54810131 378.02901971 312.59954013 375.70673182 312.60344601 372.3110733 C312.60728715 371.06112804 312.6111283 369.81118277 312.61508584 368.52336037 C312.61430555 367.12860237 312.61342676 365.73384442 312.61246014 364.33908653 C312.61504303 362.86338151 312.61805597 361.38767718 312.62146354 359.91197383 C312.62954559 355.84663802 312.63132378 351.78131985 312.632061 347.71597695 C312.63390944 343.3355202 312.64145566 338.95507265 312.64819622 334.5746212 C312.66178808 324.99212537 312.66780544 315.40963371 312.67220688 305.82712984 C312.67496756 299.84680944 312.67920456 293.86649065 312.68371105 287.88617134 C312.69590426 271.33669003 312.70620384 254.78721001 312.70958614 238.2377243 C312.70980571 237.17818265 312.71002528 236.11864099 312.7102515 235.02699202 C312.71046977 233.96488223 312.71068805 232.90277245 312.71091294 231.80847752 C312.71135641 229.65615408 312.71180298 227.50383063 312.71225262 225.35150719 C312.71247405 224.28387516 312.71269548 223.21624312 312.71292362 222.11625861 C312.71687335 204.8089164 312.73433248 187.50161625 312.75761214 170.1942903 C312.78130609 152.43602462 312.79378708 134.67778007 312.79495406 116.91949832 C312.79587186 106.94443018 312.80165067 96.96941686 312.81977367 86.99436378 C312.8351482 78.50203934 312.84031078 70.00978665 312.83203557 61.51745094 C312.8281198 57.18268621 312.82910368 52.8480661 312.84309292 48.51331902 C312.85577635 44.54701908 312.85468361 40.58097326 312.84250221 36.61467396 C312.84053553 35.17793884 312.84366817 33.74118606 312.85234657 32.3044758 C312.86338062 30.35472868 312.85419162 28.40489826 312.84395504 26.45514679 C312.84455213 25.37115258 312.84514922 24.28715838 312.8457644 23.17031586 C312.38076008 19.54598586 311.07398841 16.85923907 308.47201824 14.25726891 C307.02287449 14.16060126 305.56902719 14.13355086 304.11666298 14.13422108 C302.6976761 14.1312345 302.6976761 14.1312345 301.25002283 14.1281876 C299.67272161 14.13255686 299.67272161 14.13255686 298.06355572 14.13701439 C296.9560586 14.13615996 295.84856149 14.13530554 294.70750386 14.13442522 C290.96549978 14.13276717 287.22353972 14.13829709 283.48153973 14.14374352 C280.8114744 14.14402534 278.14141184 14.14391186 275.47134686 14.14330101 C269.70695756 14.14277558 263.94257955 14.14592433 258.17819309 14.15153885 C249.84376509 14.15965132 241.50934256 14.16226881 233.17491103 14.16352684 C219.65423338 14.16571776 206.13356176 14.17237892 192.61288738 14.18182945 C179.4755179 14.19100254 166.33815005 14.19808388 153.20077801 14.20233727 C151.98695839 14.20273135 151.98695839 14.20273135 150.74861716 14.2031334 C146.6892045 14.20443839 142.62979182 14.20570211 138.57037914 14.2069453 C104.8709211 14.21731915 71.17147051 14.23501266 37.47201824 14.25726891 Z " fill="#F24F81" transform="translate(103.52798175811768,56.74273109436035)"/>
<path d="M0 0 C10.73450438 8.11549208 17.26409441 18.12392807 19.47265625 31.48046875 C20.97698248 44.1295217 17.39049207 55.1056392 10.75 65.8125 C7.96392081 69.08945981 5.01399208 72.0147925 1.75 74.8125 C2.35585938 75.14121094 2.96171875 75.46992188 3.5859375 75.80859375 C10.45886161 79.7102999 16.1109114 84.29130175 21.75 89.8125 C22.30429687 90.33070313 22.85859375 90.84890625 23.4296875 91.3828125 C34.12304006 102.4229765 38.75 118.90283015 38.75 133.8125 C34.13 133.8125 29.51 133.8125 24.75 133.8125 C24.60304688 132.79671875 24.45609375 131.7809375 24.3046875 130.734375 C21.94493885 115.73808087 16.65144887 103.74733986 4.48828125 94 C-7.07662179 85.92676925 -19.97391772 82.01741031 -33.984375 84.46484375 C-42.88270061 86.3255284 -49.94150604 89.23013275 -57.25 94.8125 C-58.10207031 95.451875 -58.95414063 96.09125 -59.83203125 96.75 C-70.79584896 106.10201252 -74.60839807 120.08273841 -76.25 133.8125 C-80.87 133.8125 -85.49 133.8125 -90.25 133.8125 C-91.11418318 116.52883648 -84.09469413 101.82781541 -72.859375 89.10546875 C-67.61432258 83.60476126 -62.15791348 79.08047446 -55.25 75.8125 C-54.59 75.8125 -53.93 75.8125 -53.25 75.8125 C-53.67410156 75.35101563 -54.09820312 74.88953125 -54.53515625 74.4140625 C-65.38731573 62.34550712 -71.63078648 51.49502478 -71.46875 35.0078125 C-70.56324976 21.7810411 -64.62485973 11.85362686 -55.25 2.8125 C-39.57463155 -10.42950801 -16.95768747 -11.0649554 0 0 Z M-48.5 15.5625 C-55.56340407 23.00058366 -57.64608486 30.56682426 -57.5234375 40.6484375 C-56.69538751 50.2301588 -51.60369993 57.2385781 -44.453125 63.34765625 C-38.13088786 68.14528311 -30.74301751 70.36355112 -22.796875 69.56640625 C-13.46942087 67.94983828 -6.13858057 64.37739183 -0.25 56.8125 C4.65475431 48.7012784 7.06950005 40.84610618 5.2890625 31.35546875 C2.91299373 22.25652305 -2.45389951 15.08681746 -10.25 9.8125 C-23.33532009 3.07237537 -37.92291339 5.60989082 -48.5 15.5625 Z " fill="#F24F81" transform="translate(288.25,186.1875)"/>
<path d="M0 0 C3.4375 1 3.4375 1 5.4375 2.6875 C6.82656225 5.89970645 6.49271374 7.6936636 5.4375 11 C3.8125 12.9375 3.8125 12.9375 1.4375 14 C-2.1875 13.875 -2.1875 13.875 -5.5625 13 C-7.88999345 9.50875983 -8.06549316 8.10777749 -7.5625 4 C-5.27647022 0.43379354 -4.27192374 0 0 0 Z " fill="#F25080" transform="translate(397.5625,313)"/>
<path d="M0 0 C3.4375 1 3.4375 1 5.4375 2.6875 C6.82656225 5.89970645 6.49271374 7.6936636 5.4375 11 C3.8125 12.9375 3.8125 12.9375 1.4375 14 C-2.1875 13.875 -2.1875 13.875 -5.5625 13 C-7.88999345 9.50875983 -8.06549316 8.10777749 -7.5625 4 C-5.27647022 0.43379354 -4.27192374 0 0 0 Z " fill="#F25080" transform="translate(397.5625,185)"/>
<path d="M0 0 C3 0.5625 3 0.5625 5.4375 2.6875 C7 5.5625 7 5.5625 7 8.6875 C6 11.5625 6 11.5625 4.3125 13.5 C1.12702876 14.96359489 -0.67881323 14.55178968 -4 13.5625 C-5.875 12.375 -5.875 12.375 -7 10.5625 C-7.54068562 6.93218224 -7.46379841 5.24035921 -5.375 2.1875 C-3 0.5625 -3 0.5625 0 0 Z " fill="#F14F81" transform="translate(397,389.4375)"/>
<path d="M0 0 C2.875 1 2.875 1 4.8125 2.6875 C6.27609489 5.87297124 5.86428968 7.67881323 4.875 11 C3.6875 12.875 3.6875 12.875 1.875 14 C-1.75531776 14.54068562 -3.44714079 14.46379841 -6.5 12.375 C-8.125 10 -8.125 10 -8.6875 7 C-8.125 4 -8.125 4 -6 1.5625 C-3.125 0 -3.125 0 0 0 Z " fill="#F14F81" transform="translate(398.125,364)"/>
<path d="M0 0 C3 0.5625 3 0.5625 5.4375 2.6875 C7 5.5625 7 5.5625 7 8.6875 C6 11.5625 6 11.5625 4.3125 13.5 C1.12702876 14.96359489 -0.67881323 14.55178968 -4 13.5625 C-5.875 12.375 -5.875 12.375 -7 10.5625 C-7.54068562 6.93218224 -7.46379841 5.24035921 -5.375 2.1875 C-3 0.5625 -3 0.5625 0 0 Z " fill="#F14F81" transform="translate(397,261.4375)"/>
<path d="M0 0 C2.875 1 2.875 1 4.8125 2.6875 C6.27609489 5.87297124 5.86428968 7.67881323 4.875 11 C3.6875 12.875 3.6875 12.875 1.875 14 C-1.75531776 14.54068562 -3.44714079 14.46379841 -6.5 12.375 C-8.125 10 -8.125 10 -8.6875 7 C-8.125 4 -8.125 4 -6 1.5625 C-3.125 0 -3.125 0 0 0 Z " fill="#F14F81" transform="translate(398.125,236)"/>
<path d="M0 0 C3 0.5625 3 0.5625 5.4375 2.6875 C7 5.5625 7 5.5625 7 8.6875 C6 11.5625 6 11.5625 4.3125 13.5 C1.12702876 14.96359489 -0.67881323 14.55178968 -4 13.5625 C-5.875 12.375 -5.875 12.375 -7 10.5625 C-7.54068562 6.93218224 -7.46379841 5.24035921 -5.375 2.1875 C-3 0.5625 -3 0.5625 0 0 Z " fill="#F14F81" transform="translate(397,133.4375)"/>
<path d="M0 0 C2.875 1 2.875 1 4.8125 2.6875 C6.27609489 5.87297124 5.86428968 7.67881323 4.875 11 C3.6875 12.875 3.6875 12.875 1.875 14 C-1.75531776 14.54068562 -3.44714079 14.46379841 -6.5 12.375 C-8.125 10 -8.125 10 -8.6875 7 C-8.125 4 -8.125 4 -6 1.5625 C-3.125 0 -3.125 0 0 0 Z " fill="#F14F81" transform="translate(398.125,108)"/>
<path d="M0 0 C2.0625 1.5625 2.0625 1.5625 3 4 C2.875 7.625 2.875 7.625 2 11 C-1.70415293 13.46943529 -3.62144505 13.46913089 -8 13 C-10.66266871 10.76679398 -10.95347082 9.3799883 -11.375 5.9375 C-11 3 -11 3 -10 1.125 C-6.77459888 -0.68928813 -3.59984654 -0.65859978 0 0 Z " fill="#F24F82" transform="translate(401,416)"/>
<path d="M0 0 C2.0625 1.5625 2.0625 1.5625 3 4 C2.875 7.625 2.875 7.625 2 11 C-1.70415293 13.46943529 -3.62144505 13.46913089 -8 13 C-10.66266871 10.76679398 -10.95347082 9.3799883 -11.375 5.9375 C-11 3 -11 3 -10 1.125 C-6.77459888 -0.68928813 -3.59984654 -0.65859978 0 0 Z " fill="#F24F82" transform="translate(273,416)"/>
<path d="M0 0 C2.0625 1.5625 2.0625 1.5625 3 4 C2.875 7.625 2.875 7.625 2 11 C-1.70415293 13.46943529 -3.62144505 13.46913089 -8 13 C-10.66266871 10.76679398 -10.95347082 9.3799883 -11.375 5.9375 C-11 3 -11 3 -10 1.125 C-6.77459888 -0.68928813 -3.59984654 -0.65859978 0 0 Z " fill="#F24F82" transform="translate(401,160)"/>
<path d="M0 0 C2.47970915 0.17321498 3.81633027 0.39668578 6 1.625 C7.48549091 4.41029546 7.38050713 6.39252511 7 9.5 C5.9375 11.875 5.9375 11.875 4 13.5 C-0.37855495 13.96913089 -2.29584707 13.96943529 -6 11.5 C-7.07838759 8.03375417 -7.19195389 6.0886586 -6.0625 2.625 C-3.72977646 0.22158787 -3.20448171 0.12983167 0 0 Z " fill="#F24F82" transform="translate(371,415.5)"/>
<path d="M0 0 C2.86801846 0.08864784 3.78417611 0.16414857 6.125 1.9375 C7.46661569 5.4257008 6.98928615 7.80025344 6.0625 11.375 C2.57125983 13.70249345 1.17027749 13.87799316 -2.9375 13.375 C-5.375 11.8125 -5.375 11.8125 -6.9375 9.375 C-6.73068708 3.37742524 -6.38544695 0.6081378 0 0 Z " fill="#F14F81" transform="translate(319.9375,415.625)"/>
<path d="M0 0 C2.47970915 0.17321498 3.81633027 0.39668578 6 1.625 C7.48549091 4.41029546 7.38050713 6.39252511 7 9.5 C5.9375 11.875 5.9375 11.875 4 13.5 C-0.37855495 13.96913089 -2.29584707 13.96943529 -6 11.5 C-7.07838759 8.03375417 -7.19195389 6.0886586 -6.0625 2.625 C-3.72977646 0.22158787 -3.20448171 0.12983167 0 0 Z " fill="#F24F82" transform="translate(243,415.5)"/>
<path d="M0 0 C2.86801846 0.08864784 3.78417611 0.16414857 6.125 1.9375 C7.46661569 5.4257008 6.98928615 7.80025344 6.0625 11.375 C2.57125983 13.70249345 1.17027749 13.87799316 -2.9375 13.375 C-5.375 11.8125 -5.375 11.8125 -6.9375 9.375 C-6.73068708 3.37742524 -6.38544695 0.6081378 0 0 Z " fill="#F14F81" transform="translate(191.9375,415.625)"/>
<path d="M0 0 C3.5 0.375 3.5 0.375 6.5 2.375 C7.57838759 5.84124583 7.69195389 7.7863414 6.5625 11.25 C4.22977646 13.65341213 3.70448171 13.74516833 0.5 13.875 C-1.97970915 13.70178502 -3.31633027 13.47831422 -5.5 12.25 C-6.98549091 9.46470454 -6.88050713 7.48247489 -6.5 4.375 C-4.86252612 0.71476426 -4.04017783 0.4328762 0 0 Z " fill="#F24F81" transform="translate(396.5,338.625)"/>
<path d="M0 0 C2.0625 2.125 2.0625 2.125 3 5 C2.875 8.1875 2.875 8.1875 2 11 C-1.70415293 13.46943529 -3.62144505 13.46913089 -8 13 C-10.66266871 10.76679398 -10.95347082 9.3799883 -11.375 5.9375 C-11 3 -11 3 -10 1.125 C-6.77328764 -0.6900257 -3.59333365 -0.7918781 0 0 Z " fill="#F24F82" transform="translate(401,288)"/>
<path d="M0 0 C3.5 0.375 3.5 0.375 6.5 2.375 C7.57838759 5.84124583 7.69195389 7.7863414 6.5625 11.25 C4.22977646 13.65341213 3.70448171 13.74516833 0.5 13.875 C-1.97970915 13.70178502 -3.31633027 13.47831422 -5.5 12.25 C-6.98549091 9.46470454 -6.88050713 7.48247489 -6.5 4.375 C-4.86252612 0.71476426 -4.04017783 0.4328762 0 0 Z " fill="#F24F81" transform="translate(396.5,210.625)"/>
<path d="M0 0 C3.5 0.375 3.5 0.375 6.5 2.375 C7.57838759 5.84124583 7.69195389 7.7863414 6.5625 11.25 C4.22977646 13.65341213 3.70448171 13.74516833 0.5 13.875 C-1.97970915 13.70178502 -3.31633027 13.47831422 -5.5 12.25 C-6.98549091 9.46470454 -6.88050713 7.48247489 -6.5 4.375 C-4.86252612 0.71476426 -4.04017783 0.4328762 0 0 Z " fill="#F24F81" transform="translate(396.5,82.625)"/>
<path d="M0 0 C2.66266871 2.23320602 2.95347082 3.6200117 3.375 7.0625 C3 10 3 10 2 11.875 C-1.22671236 13.6900257 -4.40666635 13.7918781 -8 13 C-10.0625 10.875 -10.0625 10.875 -11 8 C-10.875 4.8125 -10.875 4.8125 -10 2 C-6.29584707 -0.46943529 -4.37855495 -0.46913089 0 0 Z " fill="#F24F81" transform="translate(375,83)"/>
<path d="M0 0 C2.4375 1.5625 2.4375 1.5625 4 4 C3.78571429 10.21428571 3.78571429 10.21428571 1 13 C-6.10659898 13.67681895 -6.10659898 13.67681895 -9.0625 11.4375 C-10.40411569 7.9492992 -9.92678615 5.57474656 -9 2 C-5.50875983 -0.32749345 -4.10777749 -0.50299316 0 0 Z " fill="#F14F80" transform="translate(323,83)"/>
<path d="M0 0 C3.5 0.375 3.5 0.375 6.5 2.375 C7.57838759 5.84124583 7.69195389 7.7863414 6.5625 11.25 C4.22977646 13.65341213 3.70448171 13.74516833 0.5 13.875 C-1.97970915 13.70178502 -3.31633027 13.47831422 -5.5 12.25 C-6.98549091 9.46470454 -6.88050713 7.48247489 -6.5 4.375 C-4.86252612 0.71476426 -4.04017783 0.4328762 0 0 Z " fill="#F24F81" transform="translate(268.5,82.625)"/>
<path d="M0 0 C2.66266871 2.23320602 2.95347082 3.6200117 3.375 7.0625 C3 10 3 10 2 11.875 C-1.22671236 13.6900257 -4.40666635 13.7918781 -8 13 C-10.0625 10.875 -10.0625 10.875 -11 8 C-10.875 4.8125 -10.875 4.8125 -10 2 C-6.29584707 -0.46943529 -4.37855495 -0.46913089 0 0 Z " fill="#F24F81" transform="translate(247,83)"/>
<path d="M0 0 C2.4375 1.5625 2.4375 1.5625 4 4 C3.78571429 10.21428571 3.78571429 10.21428571 1 13 C-6.10659898 13.67681895 -6.10659898 13.67681895 -9.0625 11.4375 C-10.40411569 7.9492992 -9.92678615 5.57474656 -9 2 C-5.50875983 -0.32749345 -4.10777749 -0.50299316 0 0 Z " fill="#F14F80" transform="translate(195,83)"/>
<path d="M0 0 C1.9375 1.0625 1.9375 1.0625 3 3 C3.36528977 6.4093712 3.6140629 8.88023824 1.9375 11.9375 C-1.11976176 13.6140629 -3.5906288 13.36528977 -7 13 C-8.9375 11.9375 -8.9375 11.9375 -10 10 C-10.36528977 6.5906288 -10.6140629 4.11976176 -8.9375 1.0625 C-5.88023824 -0.6140629 -3.4093712 -0.36528977 0 0 Z " fill="#F14F80" transform="translate(349,416)"/>
<path d="M0 0 C1.9375 1.0625 1.9375 1.0625 3 3 C3.36528977 6.4093712 3.6140629 8.88023824 1.9375 11.9375 C-1.11976176 13.6140629 -3.5906288 13.36528977 -7 13 C-8.9375 11.9375 -8.9375 11.9375 -10 10 C-10.36528977 6.5906288 -10.6140629 4.11976176 -8.9375 1.0625 C-5.88023824 -0.6140629 -3.4093712 -0.36528977 0 0 Z " fill="#F14F81" transform="translate(298,416)"/>
<path d="M0 0 C1.9375 1.0625 1.9375 1.0625 3 3 C3.36528977 6.4093712 3.6140629 8.88023824 1.9375 11.9375 C-1.11976176 13.6140629 -3.5906288 13.36528977 -7 13 C-8.9375 11.9375 -8.9375 11.9375 -10 10 C-10.36528977 6.5906288 -10.6140629 4.11976176 -8.9375 1.0625 C-5.88023824 -0.6140629 -3.4093712 -0.36528977 0 0 Z " fill="#F14F80" transform="translate(221,416)"/>
<path d="M0 0 C1.9375 1.0625 1.9375 1.0625 3 3 C3.36528977 6.4093712 3.6140629 8.88023824 1.9375 11.9375 C-1.11976176 13.6140629 -3.5906288 13.36528977 -7 13 C-8.9375 11.9375 -8.9375 11.9375 -10 10 C-10.36528977 6.5906288 -10.6140629 4.11976176 -8.9375 1.0625 C-5.88023824 -0.6140629 -3.4093712 -0.36528977 0 0 Z " fill="#F14F81" transform="translate(170,416)"/>
<path d="M0 0 C1.9375 1.0625 1.9375 1.0625 3 3 C3.36528977 6.4093712 3.6140629 8.88023824 1.9375 11.9375 C-1.11976176 13.6140629 -3.5906288 13.36528977 -7 13 C-8.9375 11.9375 -8.9375 11.9375 -10 10 C-10.36528977 6.5906288 -10.6140629 4.11976176 -8.9375 1.0625 C-5.88023824 -0.6140629 -3.4093712 -0.36528977 0 0 Z " fill="#F14F81" transform="translate(349,83)"/>
<path d="M0 0 C1.9375 1.0625 1.9375 1.0625 3 3 C3.36528977 6.4093712 3.6140629 8.88023824 1.9375 11.9375 C-1.11976176 13.6140629 -3.5906288 13.36528977 -7 13 C-8.9375 11.9375 -8.9375 11.9375 -10 10 C-10.36528977 6.5906288 -10.6140629 4.11976176 -8.9375 1.0625 C-5.88023824 -0.6140629 -3.4093712 -0.36528977 0 0 Z " fill="#F14F80" transform="translate(298,83)"/>
<path d="M0 0 C1.9375 1.0625 1.9375 1.0625 3 3 C3.36528977 6.4093712 3.6140629 8.88023824 1.9375 11.9375 C-1.11976176 13.6140629 -3.5906288 13.36528977 -7 13 C-8.9375 11.9375 -8.9375 11.9375 -10 10 C-10.36528977 6.5906288 -10.6140629 4.11976176 -8.9375 1.0625 C-5.88023824 -0.6140629 -3.4093712 -0.36528977 0 0 Z " fill="#F14F81" transform="translate(221,83)"/>
<path d="M0 0 C1.9375 1.0625 1.9375 1.0625 3 3 C3.36528977 6.4093712 3.6140629 8.88023824 1.9375 11.9375 C-1.11976176 13.6140629 -3.5906288 13.36528977 -7 13 C-8.9375 11.9375 -8.9375 11.9375 -10 10 C-10.36528977 6.5906288 -10.6140629 4.11976176 -8.9375 1.0625 C-5.88023824 -0.6140629 -3.4093712 -0.36528977 0 0 Z " fill="#F14F80" transform="translate(170,83)"/>
</svg>
